HIERARCHY
ROOT Hips
{
	OFFSET 0.00 0.00 0.00
	CHANNELS 6 Xposition Yposition Zposition Xrotation Yrotation Zrotation
	JOINT Spine
	{
		OFFSET 0.00000 4.88528 0.00000
		CHANNELS 3 Xrotation Yrotation Zrotation
		JOINT Head
		{
			OFFSET 0.00000 16.49416 0.00000
			CHANNELS 3 Xrotation Yrotation Zrotation
			End Site
			{
				OFFSET 0.00000 4.52755 0.00000
			}
		}
		JOINT LeftShoulder
		{
			OFFSET 0.00000 10.66345 0.00000
			CHANNELS 3 Xrotation Yrotation Zrotation
			JOINT LeftArm
			{
				OFFSET 7.53191 0.00000 0.00000
				CHANNELS 3 Xrotation Yrotation Zrotation
				JOINT LeftForeArm
				{
					OFFSET 10.22920 0.00000 0.00000
					CHANNELS 3 Yrotation Zrotation Xrotation
					JOINT LeftHand
					{
						OFFSET 8.67349 0.00000 0.00000
						CHANNELS 3 Xrotation Yrotation Zrotation
						JOINT LeftHandThumb1
						{
							OFFSET 0.00000 0.00000 0.00000
							CHANNELS 3 Xrotation Zrotation Yrotation
							End Site
							{
								OFFSET 0.00000 0.00000 3.93700
							}
						}
						End Site
						{
							OFFSET 3.93700 0.00000 0.00000
						}
					}
				}
			}
		}
		JOINT RightShoulder
		{
			OFFSET 0.00000 10.66345 0.00000
			CHANNELS 3 Xrotation Yrotation Zrotation
			JOINT RightArm
			{
				OFFSET -7.53191 0.00000 0.00000
				CHANNELS 3 Xrotation Yrotation Zrotation
				JOINT RightForeArm
				{
					OFFSET -10.22920 0.00000 0.00000
					CHANNELS 3 Yrotation Zrotation Xrotation
					JOINT RightHand
					{
						OFFSET -8.67349 0.00000 0.00000
						CHANNELS 3 Xrotation Yrotation Zrotation
						JOINT RightHandThumb1
						{
							OFFSET 0.00000 0.00000 0.00000
							CHANNELS 3 Xrotation Zrotation Yrotation
							End Site
							{
								OFFSET 0.00000 0.00000 3.93700
							}
						}
						End Site
						{
							OFFSET -3.93700 0.00000 0.00000
						}
					}
				}
			}
		}
	}
	JOINT LeftUpLeg
	{
		OFFSET 2.67219 0.00000 0.00000
		CHANNELS 3 Xrotation Yrotation Zrotation
		JOINT LeftLeg
		{
			OFFSET 0.00000 -16.26339 0.00000
			CHANNELS 3 Xrotation Yrotation Zrotation
			JOINT LeftFoot
			{
				OFFSET 0.00000 -14.32816 0.00000
				CHANNELS 3 Xrotation Yrotation Zrotation
				JOINT LeftToeBase
				{
					OFFSET 0.00000 -1.30219 4.85985
					CHANNELS 3 Xrotation Yrotation Zrotation
					End Site
					{
						OFFSET 0.00000 0.00000 2.95275
					}
				}
			}
		}
	}
	JOINT RightUpLeg
	{
		OFFSET -2.67219 0.00000 0.00000
		CHANNELS 3 Xrotation Yrotation Zrotation
		JOINT RightLeg
		{
			OFFSET 0.00000 -16.26339 0.00000
			CHANNELS 3 Xrotation Yrotation Zrotation
			JOINT RightFoot
			{
				OFFSET 0.00000 -14.32816 0.00000
				CHANNELS 3 Xrotation Yrotation Zrotation
				JOINT RightToeBase
				{
					OFFSET 0.00000 -1.30219 4.85985
					CHANNELS 3 Xrotation Yrotation Zrotation
					End Site
					{
						OFFSET 0.00000 0.00000 2.95275
					}
				}
			}
		}
	}
}
MOTION
Frames: 9
Frame Time: 0.008333
 1.0122 32.9293 -2.2344 7.2921 0.3589 -1.9037 -11.2295 -6.4440 -0.4713 17.9780 0.1924 -0.8487 30.9532 32.7204 19.1581 -73.9015 -3.8733 -27.1829 2.9954 0.0000 9.0505 0.1946 -3.0666 3.6329 33.1476 -0.0000 26.2537 -4.5113 -5.9085 -30.6196 -19.5710 0.4045 39.1666 1.6596 -0.0000 11.2731 -0.0416 2.4123 0.9892 32.8623 0.0000 -24.3270 0.7501 -3.8679 1.4445 -5.7713 0.0000 0.0000 -0.4145 14.0368 -12.2901 -10.6028 -0.0000 0.0000 -1.3830 -0.7384 3.0620 -3.3538 -0.0000 0.0000 -4.3635 -9.3642 5.8597 -0.9480 -0.0000 0.0000
 1.0114 32.9292 -2.2341 7.2936 0.3417 -1.9013 -11.2340 -6.4493 -0.4776 17.9793 0.1854 -0.8281 30.9372 32.7319 19.1787 -73.8901 -3.8825 -27.1885 3.0017 0.0000 9.0778 0.1925 -3.0349 3.6318 33.1476 -0.0000 26.2537 -4.5314 -5.9003 -30.6381 -19.5638 0.4116 39.1849 1.6619 -0.0000 11.2422 -0.0425 2.4116 1.0097 32.8623 0.0000 -24.3270 0.7615 -3.8545 1.4380 -5.8011 0.0000 0.0000 -0.3198 14.0733 -12.5040 -10.8871 0.0000 0.0000 -1.3831 -0.7180 3.0603 -3.3598 0.0000 -0.0000 -4.3689 -9.3658 5.8661 -0.9146 0.0000 -0.0000
 1.0126 32.9292 -2.2333 7.2894 0.3214 -1.8913 -11.2356 -6.4565 -0.4815 17.9959 0.1880 -0.8313 30.9503 32.7410 19.1725 -73.9192 -3.8780 -27.1857 3.0043 0.0000 9.1051 0.1903 -3.0301 3.5956 33.1476 -0.0000 26.2537 -4.5363 -5.8788 -30.6468 -19.5714 0.4110 39.1725 1.6520 -0.0000 11.2757 -0.0419 2.4259 0.9904 32.8623 0.0000 -24.3270 0.7561 -3.8572 1.4292 -5.7719 0.0000 -0.0000 -0.4038 14.0888 -12.3434 -10.6446 -0.0000 -0.0000 -1.3792 -0.7090 3.0487 -3.3621 -0.0000 -0.0000 -4.3554 -9.3601 5.8706 -0.9756 0.0000 -0.0000
 1.0103 32.9289 -2.2326 7.2866 0.3168 -1.9051 -11.2321 -6.4596 -0.4743 17.9927 0.1718 -0.8115 30.9477 32.7459 19.1910 -73.9421 -3.8812 -27.1938 3.0098 0.0000 9.1444 0.1947 -2.9798 3.7394 33.1476 -0.0000 26.2537 -4.5372 -5.8931 -30.6508 -19.5709 0.4402 39.1669 1.6338 -0.0000 11.2681 -0.0420 2.4142 0.9975 32.8623 0.0000 -24.3270 0.7695 -3.8323 1.4481 -5.7913 0.0000 -0.0000 -0.3530 14.0461 -12.4669 -10.8404 0.0000 -0.0000 -1.3731 -0.7120 3.0678 -3.3652 -0.0000 0.0000 -4.3587 -9.3506 5.8593 -0.9371 0.0000 0.0000
 1.0108 32.9291 -2.2314 7.2866 0.2975 -1.9022 -11.2390 -6.4608 -0.4727 18.0039 0.1468 -0.8039 30.9292 32.7422 19.2050 -73.9512 -3.8793 -27.1855 3.0351 0.0000 9.1172 0.1962 -3.0011 3.7422 33.1476 -0.0000 26.2537 -4.5428 -5.8740 -30.6637 -19.5504 0.4441 39.1562 1.6399 -0.0000 11.3126 -0.0438 2.3897 1.0502 32.8623 0.0000 -24.3270 0.7784 -3.8123 1.4387 -5.8054 0.0000 0.0000 -0.4021 14.0734 -12.3033 -10.6055 -0.0000 0.0000 -1.3711 -0.7010 3.0633 -3.3684 0.0000 -0.0000 -4.3625 -9.3376 5.8681 -0.9224 -0.0000 -0.0000
 1.0102 32.9291 -2.2313 7.2858 0.2803 -1.9050 -11.2385 -6.4531 -0.4716 18.0043 0.1271 -0.7735 30.9077 32.7412 19.2329 -73.9494 -3.8743 -27.1870 3.0229 0.0000 9.1210 0.1899 -2.9975 3.6274 33.1476 -0.0000 26.2537 -4.5538 -5.8709 -30.6679 -19.5497 0.4491 39.1408 1.6302 -0.0000 11.3482 -0.0461 2.3533 1.1225 32.8623 0.0000 -24.3270 0.7838 -3.8106 1.4428 -5.8113 -0.0000 0.0000 -0.4017 14.0986 -12.3045 -10.6143 0.0000 -0.0000 -1.3714 -0.6972 3.0684 -3.3691 0.0000 0.0000 -4.3519 -9.3324 5.8808 -0.9371 -0.0000 0.0000
 1.0105 32.9289 -2.2308 7.2873 0.2699 -1.9111 -11.2422 -6.4571 -0.4660 18.0122 0.1058 -0.7572 30.8874 32.7458 19.2667 -73.9227 -3.8772 -27.1981 3.0254 0.0000 9.1363 0.1901 -3.0156 3.6095 33.1476 -0.0000 26.2537 -4.5395 -5.8770 -30.6766 -19.5524 0.4701 39.1314 1.6259 -0.0000 11.3305 -0.0467 2.3206 1.1541 32.8623 0.0000 -24.3270 0.7768 -3.8103 1.4519 -5.7964 0.0000 -0.0000 -0.3372 14.0950 -12.5099 -10.9018 -0.0000 0.0000 -1.3720 -0.6948 3.0745 -3.3714 0.0000 -0.0000 -4.3530 -9.3249 5.8635 -0.9236 0.0000 -0.0000
 1.0097 32.9292 -2.2297 7.2895 0.2593 -1.9129 -11.2510 -6.4539 -0.4665 18.0153 0.0945 -0.7402 30.8913 32.7425 19.2859 -73.8936 -3.8967 -27.1877 3.0195 0.0000 9.0920 0.1870 -3.0206 3.5449 33.1476 -0.0000 26.2537 -4.5468 -5.8571 -30.6706 -19.5345 0.4585 39.0901 1.6131 -0.0000 11.3450 -0.0472 2.4522 1.1036 32.8623 0.0000 -24.3270 0.7858 -3.7664 1.4529 -5.8185 -0.0000 0.0000 -0.3270 14.0731 -12.5325 -10.8849 -0.0000 -0.0000 -1.3732 -0.6913 3.0781 -3.3717 0.0000 -0.0000 -4.3452 -9.3201 5.8826 -0.9535 -0.0000 -0.0000
 1.0100 32.9294 -2.2293 7.2981 0.2552 -1.9158 -11.2612 -6.4664 -0.4548 18.0148 0.0772 -0.7529 30.8764 32.7366 19.2916 -73.8978 -3.8952 -27.1787 3.0067 0.0000 9.1177 0.1852 -3.0162 3.5158 33.1476 -0.0000 26.2537 -4.5413 -5.8444 -30.6607 -19.5340 0.4707 39.0267 1.5714 -0.0000 11.3706 -0.0510 2.4509 1.1918 32.8623 0.0000 -24.3270 0.7819 -3.7638 1.4566 -5.8266 0.0000 0.0000 -0.3191 14.0727 -12.5375 -10.8988 -0.0000 0.0000 -1.3796 -0.7043 3.0807 -3.3743 0.0000 -0.0000 -4.3403 -9.3105 5.8785 -0.9389 -0.0000 -0.0000
